<?xml version="1.0" encoding="utf-8"?><svg data-name="Ebene 1" xmlns="http://www.w3.org/2000/svg" viewBox="0 0 414.33 95.14"><path d="M307 1.18v9.2a11.82 11.82 0 01-1 5.44 9.42 9.42 0 01-16.76 0 11.69 11.69 0 01-1-5.44v-9.2z" fill="#ff503c"/><path d="M288.13 26.58H307v66.75h-18.87zM335.72 45c0-2.95 3.3-5.93 10.16-5.93a15.66 15.66 0 0113 7.35l14.64-5.73c-5-9.18-13.39-15.75-28.35-15.75-16.9 0-27.47 8.77-27.47 20.91 0 26.72 39.62 16.83 39.62 28 0 3.3-3.86 6.49-10.13 6.49a18.11 18.11 0 01-15.44-9.5L316 77c4.62 10.82 14.61 18 30.63 18 19.08 0 28.41-11.6 28.41-22.5.04-26.5-39.32-16.41-39.32-27.5zm78.61-14.18h-6.16c-4.18 0-6.43-2.25-6.43-6.43V8.81L383.1 16.5v50.34c0 20 6.95 27.67 28.27 27.67h3v-16h-1.4c-8.91 0-11.19-2.88-11.19-10.32v-21h12.59zM30 26.32C30 18.88 32.31 16 41.22 16h1.4V0h-3C18.35 0 11.39 7.59 11.39 27.67v3.16H0v16.34h11.39v46.16H30V53.61c0-4.18 2.25-6.44 6.43-6.44h6.16V30.83H30zM197.48 60c0 19.68-15.71 35.18-36.43 35.18S124.62 79.64 124.62 60c0-20 15.71-35.19 36.43-35.19S197.48 40 197.48 60zm-19.28-.07c0-10-7.39-18.2-17.15-18.2s-17.66 8.15-17.66 18.2 7.91 18.2 17.66 18.2 17.15-8.19 17.15-18.24zm-59.7.07c0 19.68-15.71 35.18-36.43 35.18S45.64 79.64 45.64 60c0-20 15.71-35.19 36.43-35.19S118.5 40 118.5 60zm-19.28-.07c0-10-7.39-18.2-17.15-18.2s-17.66 8.15-17.66 18.2 7.91 18.2 17.66 18.2 17.15-8.19 17.15-18.24zm157.35-29.35c-4.48-3.65-10.27-5.46-17.11-5.46-20.52 0-35.85 15.08-35.85 34.84 0 19.48 15 34.83 35.56 34.83 7.33 0 13.72-2.43 18.54-7.17v5.71h17.22V1.18h-18.36zM240 41.69c9.75 0 17.15 8.15 17.15 18.2s-7.4 18.2-17.15 18.2-17.66-8.15-17.66-18.2 7.87-18.2 17.66-18.2z" fill="#284b41"/></svg>